# xmcd
#
# Track frame offsets: 
#        150
#        32616
#        55567
#        78937
#        99490
#        119543
#        150711
#
# Disc length: 2460 seconds
#
# Revision: 0
# Processed by: cddbd v1.5.2PL0 Copyright (c) Steve Scherf et al.
# Submitted via: ExactAudioCopyFreeDBPlugin 1.0
#
DISCID=49099a07
DTITLE=Bonnie Bishop - The Walk 
DYEAR=2019
DGENRE=Country
TTITLE0=Love Revolution 
TTITLE1=Keep on Moving 
TTITLE2=The Walk 
TTITLE3=Every Happiness Under the Sun 
TTITLE4=I Don't Like to Be Alone 
TTITLE5=Women at the Well 
TTITLE6=Song Don't Fail Me Now 
EXTD=
EXTT0=
EXTT1=
EXTT2=
EXTT3=
EXTT4=
EXTT5=
EXTT6=
PLAYORDER=
